# xmcd
#
# Track frame offsets:
#	150
#	17507
#	37285
#	53440
#	67532
#	90882
#	109682
#	130287
#	148815
#	166842
#
# Disc length: 2508 seconds
#
# Revision: 1
# Processed by: cddbd v1.5.2PL0 Copyright (c) Steve Scherf et al.
# Submitted via: audiograbber 1.83.01
#
DISCID=7509ca0a
DTITLE=Djamel Laroussi - Sapoutaly
DYEAR=1997
DGENRE=World
TTITLE0=Sapoutaly
TTITLE1=Dgni Ma Coffey
TTITLE2=So...So...So
TTITLE3=La Mélodie qui te suit
TTITLE4=N' Kodo
TTITLE5=Ya Karim
TTITLE6=Toujours non
TTITLE7=Onabenana
TTITLE8=Salamandre
TTITLE9=Hey! Ma Liy
EXTD=
EXTT0=
EXTT1=
EXTT2=
EXTT3=
EXTT4=
EXTT5=
EXTT6=
EXTT7=
EXTT8=
EXTT9=
PLAYORDER=
